<mxfile host="app.diagrams.net" modified="2023-06-08T02:11:05.319Z" agent="Mozilla/5.0 (Macintosh; Intel Mac OS X 10_15_7) AppleWebKit/537.36 (KHTML, like Gecko) Chrome/113.0.0.0 Safari/537.36" etag="bN5hbO9N8N1sDhOlBQCL" version="21.3.4" type="device">
  <diagram name="Page-1" id="TE9xnHanVY48OYKl-3SV">
    <mxGraphModel dx="1080" dy="419" grid="1" gridSize="10" guides="1" tooltips="1" connect="1" arrows="1" fold="1" page="1" pageScale="1" pageWidth="827" pageHeight="1169" math="0" shadow="0">
      <root>
        <mxCell id="0" />
        <mxCell id="1" parent="0" />
        <mxCell id="Tm7ERoqtQPR2VgHOjCgq-1" value="ap-south-1a" style="points=[[0,0],[0.25,0],[0.5,0],[0.75,0],[1,0],[1,0.25],[1,0.5],[1,0.75],[1,1],[0.75,1],[0.5,1],[0.25,1],[0,1],[0,0.75],[0,0.5],[0,0.25]];outlineConnect=0;gradientColor=none;html=1;whiteSpace=wrap;fontSize=12;fontStyle=0;container=1;pointerEvents=0;collapsible=0;recursiveResize=0;shape=mxgraph.aws4.group;grIcon=mxgraph.aws4.group_security_group;grStroke=0;strokeColor=#248814;fillColor=#E9F3E6;verticalAlign=top;align=left;spacingLeft=30;fontColor=#248814;dashed=0;" parent="1" vertex="1">
          <mxGeometry x="180" y="150" width="190" height="180" as="geometry" />
        </mxCell>
        <mxCell id="Tm7ERoqtQPR2VgHOjCgq-3" value="ec2&amp;nbsp;" style="outlineConnect=0;dashed=0;verticalLabelPosition=bottom;verticalAlign=top;align=center;html=1;shape=mxgraph.aws3.instance;fillColor=#F58534;gradientColor=none;" parent="Tm7ERoqtQPR2VgHOjCgq-1" vertex="1">
          <mxGeometry x="65" y="59" width="60" height="63" as="geometry" />
        </mxCell>
        <mxCell id="Tm7ERoqtQPR2VgHOjCgq-4" value="ap-south-1b" style="points=[[0,0],[0.25,0],[0.5,0],[0.75,0],[1,0],[1,0.25],[1,0.5],[1,0.75],[1,1],[0.75,1],[0.5,1],[0.25,1],[0,1],[0,0.75],[0,0.5],[0,0.25]];outlineConnect=0;gradientColor=none;html=1;whiteSpace=wrap;fontSize=12;fontStyle=0;container=1;pointerEvents=0;collapsible=0;recursiveResize=0;shape=mxgraph.aws4.group;grIcon=mxgraph.aws4.group_security_group;grStroke=0;strokeColor=#248814;fillColor=#E9F3E6;verticalAlign=top;align=left;spacingLeft=30;fontColor=#248814;dashed=0;" parent="1" vertex="1">
          <mxGeometry x="540" y="140" width="190" height="180" as="geometry" />
        </mxCell>
        <mxCell id="Tm7ERoqtQPR2VgHOjCgq-5" value="ec2&amp;nbsp;" style="outlineConnect=0;dashed=0;verticalLabelPosition=bottom;verticalAlign=top;align=center;html=1;shape=mxgraph.aws3.instance;fillColor=#F58534;gradientColor=none;" parent="Tm7ERoqtQPR2VgHOjCgq-4" vertex="1">
          <mxGeometry x="65" y="59" width="60" height="63" as="geometry" />
        </mxCell>
        <mxCell id="Tm7ERoqtQPR2VgHOjCgq-10" style="edgeStyle=orthogonalEdgeStyle;rounded=0;orthogonalLoop=1;jettySize=auto;html=1;" parent="1" source="Tm7ERoqtQPR2VgHOjCgq-6" target="Tm7ERoqtQPR2VgHOjCgq-9" edge="1">
          <mxGeometry relative="1" as="geometry">
            <Array as="points">
              <mxPoint x="275" y="507" />
            </Array>
          </mxGeometry>
        </mxCell>
        <mxCell id="Tm7ERoqtQPR2VgHOjCgq-6" value="" style="outlineConnect=0;dashed=0;verticalLabelPosition=bottom;verticalAlign=top;align=center;html=1;shape=mxgraph.aws3.volume;fillColor=#E05243;gradientColor=none;" parent="1" vertex="1">
          <mxGeometry x="249" y="380" width="52.5" height="75" as="geometry" />
        </mxCell>
        <mxCell id="Tm7ERoqtQPR2VgHOjCgq-7" style="edgeStyle=orthogonalEdgeStyle;rounded=0;orthogonalLoop=1;jettySize=auto;html=1;" parent="1" source="Tm7ERoqtQPR2VgHOjCgq-3" target="Tm7ERoqtQPR2VgHOjCgq-6" edge="1">
          <mxGeometry relative="1" as="geometry" />
        </mxCell>
        <mxCell id="Tm7ERoqtQPR2VgHOjCgq-12" style="edgeStyle=orthogonalEdgeStyle;rounded=0;orthogonalLoop=1;jettySize=auto;html=1;" parent="1" source="Tm7ERoqtQPR2VgHOjCgq-9" edge="1">
          <mxGeometry relative="1" as="geometry">
            <mxPoint x="630" y="466.5" as="targetPoint" />
          </mxGeometry>
        </mxCell>
        <mxCell id="Tm7ERoqtQPR2VgHOjCgq-9" value="Snapshot" style="outlineConnect=0;dashed=0;verticalLabelPosition=bottom;verticalAlign=top;align=center;html=1;shape=mxgraph.aws3.snapshot;fillColor=#E05243;gradientColor=none;" parent="1" vertex="1">
          <mxGeometry x="430" y="470" width="60" height="73.5" as="geometry" />
        </mxCell>
        <mxCell id="Tm7ERoqtQPR2VgHOjCgq-14" style="edgeStyle=orthogonalEdgeStyle;rounded=0;orthogonalLoop=1;jettySize=auto;html=1;entryX=0.5;entryY=1;entryDx=0;entryDy=0;entryPerimeter=0;" parent="1" source="Tm7ERoqtQPR2VgHOjCgq-13" target="Tm7ERoqtQPR2VgHOjCgq-5" edge="1">
          <mxGeometry relative="1" as="geometry" />
        </mxCell>
        <mxCell id="Tm7ERoqtQPR2VgHOjCgq-13" value="" style="outlineConnect=0;dashed=0;verticalLabelPosition=bottom;verticalAlign=top;align=center;html=1;shape=mxgraph.aws3.volume;fillColor=#E05243;gradientColor=none;" parent="1" vertex="1">
          <mxGeometry x="608.75" y="390" width="52.5" height="75" as="geometry" />
        </mxCell>
        <mxCell id="Tm7ERoqtQPR2VgHOjCgq-26" value="ap-south-1a" style="points=[[0,0],[0.25,0],[0.5,0],[0.75,0],[1,0],[1,0.25],[1,0.5],[1,0.75],[1,1],[0.75,1],[0.5,1],[0.25,1],[0,1],[0,0.75],[0,0.5],[0,0.25]];outlineConnect=0;gradientColor=none;html=1;whiteSpace=wrap;fontSize=12;fontStyle=0;container=1;pointerEvents=0;collapsible=0;recursiveResize=0;shape=mxgraph.aws4.group;grIcon=mxgraph.aws4.group_security_group;grStroke=0;strokeColor=#248814;fillColor=#E9F3E6;verticalAlign=top;align=left;spacingLeft=30;fontColor=#248814;dashed=0;" parent="1" vertex="1">
          <mxGeometry x="139" y="650" width="190" height="180" as="geometry" />
        </mxCell>
        <mxCell id="Tm7ERoqtQPR2VgHOjCgq-27" value="ec2&amp;nbsp;" style="outlineConnect=0;dashed=0;verticalLabelPosition=bottom;verticalAlign=top;align=center;html=1;shape=mxgraph.aws3.instance;fillColor=#F58534;gradientColor=none;" parent="Tm7ERoqtQPR2VgHOjCgq-26" vertex="1">
          <mxGeometry x="65" y="59" width="60" height="63" as="geometry" />
        </mxCell>
        <mxCell id="Tm7ERoqtQPR2VgHOjCgq-28" value="ap-southeast-11" style="points=[[0,0],[0.25,0],[0.5,0],[0.75,0],[1,0],[1,0.25],[1,0.5],[1,0.75],[1,1],[0.75,1],[0.5,1],[0.25,1],[0,1],[0,0.75],[0,0.5],[0,0.25]];outlineConnect=0;gradientColor=none;html=1;whiteSpace=wrap;fontSize=12;fontStyle=0;container=1;pointerEvents=0;collapsible=0;recursiveResize=0;shape=mxgraph.aws4.group;grIcon=mxgraph.aws4.group_security_group;grStroke=0;strokeColor=#248814;fillColor=#E9F3E6;verticalAlign=top;align=left;spacingLeft=30;fontColor=#248814;dashed=0;" parent="1" vertex="1">
          <mxGeometry x="499" y="640" width="190" height="180" as="geometry" />
        </mxCell>
        <mxCell id="Tm7ERoqtQPR2VgHOjCgq-29" value="ec2&amp;nbsp;" style="outlineConnect=0;dashed=0;verticalLabelPosition=bottom;verticalAlign=top;align=center;html=1;shape=mxgraph.aws3.instance;fillColor=#F58534;gradientColor=none;" parent="Tm7ERoqtQPR2VgHOjCgq-28" vertex="1">
          <mxGeometry x="65" y="59" width="60" height="63" as="geometry" />
        </mxCell>
        <mxCell id="Tm7ERoqtQPR2VgHOjCgq-30" style="edgeStyle=orthogonalEdgeStyle;rounded=0;orthogonalLoop=1;jettySize=auto;html=1;" parent="1" source="Tm7ERoqtQPR2VgHOjCgq-31" target="Tm7ERoqtQPR2VgHOjCgq-34" edge="1">
          <mxGeometry relative="1" as="geometry">
            <Array as="points">
              <mxPoint x="234" y="1007" />
            </Array>
          </mxGeometry>
        </mxCell>
        <mxCell id="Tm7ERoqtQPR2VgHOjCgq-31" value="" style="outlineConnect=0;dashed=0;verticalLabelPosition=bottom;verticalAlign=top;align=center;html=1;shape=mxgraph.aws3.volume;fillColor=#E05243;gradientColor=none;" parent="1" vertex="1">
          <mxGeometry x="208" y="880" width="52.5" height="75" as="geometry" />
        </mxCell>
        <mxCell id="Tm7ERoqtQPR2VgHOjCgq-32" style="edgeStyle=orthogonalEdgeStyle;rounded=0;orthogonalLoop=1;jettySize=auto;html=1;" parent="1" source="Tm7ERoqtQPR2VgHOjCgq-27" target="Tm7ERoqtQPR2VgHOjCgq-31" edge="1">
          <mxGeometry relative="1" as="geometry" />
        </mxCell>
        <mxCell id="Tm7ERoqtQPR2VgHOjCgq-40" style="edgeStyle=orthogonalEdgeStyle;rounded=0;orthogonalLoop=1;jettySize=auto;html=1;" parent="1" source="Tm7ERoqtQPR2VgHOjCgq-34" target="Tm7ERoqtQPR2VgHOjCgq-39" edge="1">
          <mxGeometry relative="1" as="geometry" />
        </mxCell>
        <mxCell id="Tm7ERoqtQPR2VgHOjCgq-41" value="&lt;b&gt;Copy&lt;/b&gt;" style="edgeLabel;html=1;align=center;verticalAlign=middle;resizable=0;points=[];" parent="Tm7ERoqtQPR2VgHOjCgq-40" vertex="1" connectable="0">
          <mxGeometry x="-0.1643" y="-2" relative="1" as="geometry">
            <mxPoint as="offset" />
          </mxGeometry>
        </mxCell>
        <mxCell id="Tm7ERoqtQPR2VgHOjCgq-34" value="&lt;b&gt;Mumabi Snapshot&lt;/b&gt;" style="outlineConnect=0;dashed=0;verticalLabelPosition=bottom;verticalAlign=top;align=center;html=1;shape=mxgraph.aws3.snapshot;fillColor=#E05243;gradientColor=none;" parent="1" vertex="1">
          <mxGeometry x="204.25" y="1020" width="60" height="73.5" as="geometry" />
        </mxCell>
        <mxCell id="Tm7ERoqtQPR2VgHOjCgq-35" style="edgeStyle=orthogonalEdgeStyle;rounded=0;orthogonalLoop=1;jettySize=auto;html=1;entryX=0.5;entryY=1;entryDx=0;entryDy=0;entryPerimeter=0;" parent="1" source="Tm7ERoqtQPR2VgHOjCgq-36" target="Tm7ERoqtQPR2VgHOjCgq-29" edge="1">
          <mxGeometry relative="1" as="geometry" />
        </mxCell>
        <mxCell id="Tm7ERoqtQPR2VgHOjCgq-36" value="" style="outlineConnect=0;dashed=0;verticalLabelPosition=bottom;verticalAlign=top;align=center;html=1;shape=mxgraph.aws3.volume;fillColor=#E05243;gradientColor=none;" parent="1" vertex="1">
          <mxGeometry x="567.75" y="890" width="52.5" height="75" as="geometry" />
        </mxCell>
        <mxCell id="Tm7ERoqtQPR2VgHOjCgq-37" value="&lt;b&gt;Mumbai&lt;/b&gt;" style="text;html=1;align=center;verticalAlign=middle;resizable=0;points=[];autosize=1;strokeColor=none;fillColor=none;" parent="1" vertex="1">
          <mxGeometry x="45" y="608" width="70" height="30" as="geometry" />
        </mxCell>
        <mxCell id="Tm7ERoqtQPR2VgHOjCgq-38" value="&lt;b&gt;Singapore&lt;/b&gt;" style="text;html=1;align=center;verticalAlign=middle;resizable=0;points=[];autosize=1;strokeColor=none;fillColor=none;" parent="1" vertex="1">
          <mxGeometry x="420" y="598" width="80" height="30" as="geometry" />
        </mxCell>
        <mxCell id="Tm7ERoqtQPR2VgHOjCgq-44" style="edgeStyle=orthogonalEdgeStyle;rounded=0;orthogonalLoop=1;jettySize=auto;html=1;entryX=0.5;entryY=1;entryDx=0;entryDy=0;entryPerimeter=0;" parent="1" source="Tm7ERoqtQPR2VgHOjCgq-39" target="Tm7ERoqtQPR2VgHOjCgq-36" edge="1">
          <mxGeometry relative="1" as="geometry" />
        </mxCell>
        <mxCell id="Tm7ERoqtQPR2VgHOjCgq-39" value="&lt;b&gt;Singapore Snapshot&lt;/b&gt;" style="outlineConnect=0;dashed=0;verticalLabelPosition=bottom;verticalAlign=top;align=center;html=1;shape=mxgraph.aws3.snapshot;fillColor=#E05243;gradientColor=none;" parent="1" vertex="1">
          <mxGeometry x="564" y="1020" width="60" height="73.5" as="geometry" />
        </mxCell>
        <mxCell id="Tm7ERoqtQPR2VgHOjCgq-45" value="ap-south-1a" style="points=[[0,0],[0.25,0],[0.5,0],[0.75,0],[1,0],[1,0.25],[1,0.5],[1,0.75],[1,1],[0.75,1],[0.5,1],[0.25,1],[0,1],[0,0.75],[0,0.5],[0,0.25]];outlineConnect=0;gradientColor=none;html=1;whiteSpace=wrap;fontSize=12;fontStyle=0;container=1;pointerEvents=0;collapsible=0;recursiveResize=0;shape=mxgraph.aws4.group;grIcon=mxgraph.aws4.group_security_group;grStroke=0;strokeColor=#248814;fillColor=#E9F3E6;verticalAlign=top;align=left;spacingLeft=30;fontColor=#248814;dashed=0;" parent="1" vertex="1">
          <mxGeometry x="164" y="1212" width="190" height="180" as="geometry" />
        </mxCell>
        <mxCell id="Tm7ERoqtQPR2VgHOjCgq-46" value="ec2&amp;nbsp;" style="outlineConnect=0;dashed=0;verticalLabelPosition=bottom;verticalAlign=top;align=center;html=1;shape=mxgraph.aws3.instance;fillColor=#F58534;gradientColor=none;" parent="Tm7ERoqtQPR2VgHOjCgq-45" vertex="1">
          <mxGeometry x="65" y="59" width="60" height="63" as="geometry" />
        </mxCell>
        <mxCell id="Tm7ERoqtQPR2VgHOjCgq-48" style="edgeStyle=orthogonalEdgeStyle;rounded=0;orthogonalLoop=1;jettySize=auto;html=1;" parent="1" source="Tm7ERoqtQPR2VgHOjCgq-49" target="Tm7ERoqtQPR2VgHOjCgq-53" edge="1">
          <mxGeometry relative="1" as="geometry">
            <Array as="points">
              <mxPoint x="259" y="1569" />
            </Array>
          </mxGeometry>
        </mxCell>
        <mxCell id="Tm7ERoqtQPR2VgHOjCgq-49" value="" style="outlineConnect=0;dashed=0;verticalLabelPosition=bottom;verticalAlign=top;align=center;html=1;shape=mxgraph.aws3.volume;fillColor=#E05243;gradientColor=none;" parent="1" vertex="1">
          <mxGeometry x="233" y="1442" width="52.5" height="75" as="geometry" />
        </mxCell>
        <mxCell id="Tm7ERoqtQPR2VgHOjCgq-50" style="edgeStyle=orthogonalEdgeStyle;rounded=0;orthogonalLoop=1;jettySize=auto;html=1;" parent="1" source="Tm7ERoqtQPR2VgHOjCgq-46" target="Tm7ERoqtQPR2VgHOjCgq-49" edge="1">
          <mxGeometry relative="1" as="geometry" />
        </mxCell>
        <mxCell id="Tm7ERoqtQPR2VgHOjCgq-51" style="edgeStyle=orthogonalEdgeStyle;rounded=0;orthogonalLoop=1;jettySize=auto;html=1;" parent="1" source="Tm7ERoqtQPR2VgHOjCgq-53" target="Tm7ERoqtQPR2VgHOjCgq-59" edge="1">
          <mxGeometry relative="1" as="geometry" />
        </mxCell>
        <mxCell id="Tm7ERoqtQPR2VgHOjCgq-53" value="&lt;b&gt;Snapshot&lt;/b&gt;" style="outlineConnect=0;dashed=0;verticalLabelPosition=bottom;verticalAlign=top;align=center;html=1;shape=mxgraph.aws3.snapshot;fillColor=#E05243;gradientColor=none;" parent="1" vertex="1">
          <mxGeometry x="229.25" y="1582" width="60" height="73.5" as="geometry" />
        </mxCell>
        <mxCell id="Tm7ERoqtQPR2VgHOjCgq-62" style="edgeStyle=orthogonalEdgeStyle;rounded=0;orthogonalLoop=1;jettySize=auto;html=1;entryX=0.5;entryY=1;entryDx=0;entryDy=0;entryPerimeter=0;" parent="1" source="Tm7ERoqtQPR2VgHOjCgq-55" target="Tm7ERoqtQPR2VgHOjCgq-61" edge="1">
          <mxGeometry relative="1" as="geometry" />
        </mxCell>
        <mxCell id="Tm7ERoqtQPR2VgHOjCgq-63" style="edgeStyle=orthogonalEdgeStyle;rounded=0;orthogonalLoop=1;jettySize=auto;html=1;" parent="1" source="Tm7ERoqtQPR2VgHOjCgq-55" target="Tm7ERoqtQPR2VgHOjCgq-61" edge="1">
          <mxGeometry relative="1" as="geometry" />
        </mxCell>
        <mxCell id="Tm7ERoqtQPR2VgHOjCgq-55" value="" style="outlineConnect=0;dashed=0;verticalLabelPosition=bottom;verticalAlign=top;align=center;html=1;shape=mxgraph.aws3.volume;fillColor=#E05243;gradientColor=none;" parent="1" vertex="1">
          <mxGeometry x="592.75" y="1452" width="52.5" height="75" as="geometry" />
        </mxCell>
        <mxCell id="Tm7ERoqtQPR2VgHOjCgq-56" value="&lt;b&gt;Account - 1&lt;/b&gt;" style="text;html=1;align=center;verticalAlign=middle;resizable=0;points=[];autosize=1;strokeColor=none;fillColor=none;" parent="1" vertex="1">
          <mxGeometry x="60" y="1170" width="90" height="30" as="geometry" />
        </mxCell>
        <mxCell id="Tm7ERoqtQPR2VgHOjCgq-57" value="&lt;b&gt;Account - 2&lt;/b&gt;" style="text;html=1;align=center;verticalAlign=middle;resizable=0;points=[];autosize=1;strokeColor=none;fillColor=none;" parent="1" vertex="1">
          <mxGeometry x="440" y="1163" width="90" height="30" as="geometry" />
        </mxCell>
        <mxCell id="Tm7ERoqtQPR2VgHOjCgq-58" style="edgeStyle=orthogonalEdgeStyle;rounded=0;orthogonalLoop=1;jettySize=auto;html=1;entryX=0.5;entryY=1;entryDx=0;entryDy=0;entryPerimeter=0;" parent="1" source="Tm7ERoqtQPR2VgHOjCgq-59" target="Tm7ERoqtQPR2VgHOjCgq-55" edge="1">
          <mxGeometry relative="1" as="geometry" />
        </mxCell>
        <mxCell id="Tm7ERoqtQPR2VgHOjCgq-59" value="&lt;b&gt;Snapshot&lt;/b&gt;" style="outlineConnect=0;dashed=0;verticalLabelPosition=bottom;verticalAlign=top;align=center;html=1;shape=mxgraph.aws3.snapshot;fillColor=#E05243;gradientColor=none;" parent="1" vertex="1">
          <mxGeometry x="589" y="1582" width="60" height="73.5" as="geometry" />
        </mxCell>
        <mxCell id="Tm7ERoqtQPR2VgHOjCgq-60" value="ap-south-1a" style="points=[[0,0],[0.25,0],[0.5,0],[0.75,0],[1,0],[1,0.25],[1,0.5],[1,0.75],[1,1],[0.75,1],[0.5,1],[0.25,1],[0,1],[0,0.75],[0,0.5],[0,0.25]];outlineConnect=0;gradientColor=none;html=1;whiteSpace=wrap;fontSize=12;fontStyle=0;container=1;pointerEvents=0;collapsible=0;recursiveResize=0;shape=mxgraph.aws4.group;grIcon=mxgraph.aws4.group_security_group;grStroke=0;strokeColor=#248814;fillColor=#E9F3E6;verticalAlign=top;align=left;spacingLeft=30;fontColor=#248814;dashed=0;" parent="1" vertex="1">
          <mxGeometry x="520" y="1212" width="190" height="180" as="geometry" />
        </mxCell>
        <mxCell id="Tm7ERoqtQPR2VgHOjCgq-61" value="ec2&amp;nbsp;" style="outlineConnect=0;dashed=0;verticalLabelPosition=bottom;verticalAlign=top;align=center;html=1;shape=mxgraph.aws3.instance;fillColor=#F58534;gradientColor=none;" parent="Tm7ERoqtQPR2VgHOjCgq-60" vertex="1">
          <mxGeometry x="65" y="59" width="60" height="63" as="geometry" />
        </mxCell>
        <mxCell id="Tm7ERoqtQPR2VgHOjCgq-64" value="&lt;b&gt;Share using 12 digit account id&lt;/b&gt;" style="text;html=1;align=center;verticalAlign=middle;resizable=0;points=[];autosize=1;strokeColor=none;fillColor=none;" parent="1" vertex="1">
          <mxGeometry x="340" y="1618" width="200" height="30" as="geometry" />
        </mxCell>
        <mxCell id="Tm7ERoqtQPR2VgHOjCgq-65" value="ap-south-1a" style="points=[[0,0],[0.25,0],[0.5,0],[0.75,0],[1,0],[1,0.25],[1,0.5],[1,0.75],[1,1],[0.75,1],[0.5,1],[0.25,1],[0,1],[0,0.75],[0,0.5],[0,0.25]];outlineConnect=0;gradientColor=none;html=1;whiteSpace=wrap;fontSize=12;fontStyle=0;container=1;pointerEvents=0;collapsible=0;recursiveResize=0;shape=mxgraph.aws4.group;grIcon=mxgraph.aws4.group_security_group;grStroke=0;strokeColor=#248814;fillColor=#E9F3E6;verticalAlign=top;align=left;spacingLeft=30;fontColor=#248814;dashed=0;" parent="1" vertex="1">
          <mxGeometry x="160" y="1764" width="190" height="180" as="geometry" />
        </mxCell>
        <mxCell id="Tm7ERoqtQPR2VgHOjCgq-66" value="ec2&amp;nbsp;" style="outlineConnect=0;dashed=0;verticalLabelPosition=bottom;verticalAlign=top;align=center;html=1;shape=mxgraph.aws3.instance;fillColor=#F58534;gradientColor=none;" parent="Tm7ERoqtQPR2VgHOjCgq-65" vertex="1">
          <mxGeometry x="65" y="59" width="60" height="63" as="geometry" />
        </mxCell>
        <mxCell id="Tm7ERoqtQPR2VgHOjCgq-69" style="edgeStyle=orthogonalEdgeStyle;rounded=0;orthogonalLoop=1;jettySize=auto;html=1;" parent="1" source="Tm7ERoqtQPR2VgHOjCgq-70" target="Tm7ERoqtQPR2VgHOjCgq-73" edge="1">
          <mxGeometry relative="1" as="geometry">
            <Array as="points">
              <mxPoint x="255" y="2121" />
            </Array>
          </mxGeometry>
        </mxCell>
        <mxCell id="Tm7ERoqtQPR2VgHOjCgq-70" value="" style="outlineConnect=0;dashed=0;verticalLabelPosition=bottom;verticalAlign=top;align=center;html=1;shape=mxgraph.aws3.volume;fillColor=#E05243;gradientColor=none;" parent="1" vertex="1">
          <mxGeometry x="229" y="1994" width="52.5" height="75" as="geometry" />
        </mxCell>
        <mxCell id="Tm7ERoqtQPR2VgHOjCgq-71" style="edgeStyle=orthogonalEdgeStyle;rounded=0;orthogonalLoop=1;jettySize=auto;html=1;" parent="1" source="Tm7ERoqtQPR2VgHOjCgq-66" target="Tm7ERoqtQPR2VgHOjCgq-70" edge="1">
          <mxGeometry relative="1" as="geometry" />
        </mxCell>
        <mxCell id="Tm7ERoqtQPR2VgHOjCgq-73" value="Snapshot" style="outlineConnect=0;dashed=0;verticalLabelPosition=bottom;verticalAlign=top;align=center;html=1;shape=mxgraph.aws3.snapshot;fillColor=#E05243;gradientColor=none;" parent="1" vertex="1">
          <mxGeometry x="360" y="2080" width="60" height="73.5" as="geometry" />
        </mxCell>
        <mxCell id="Tm7ERoqtQPR2VgHOjCgq-76" value="&lt;b&gt;Share with everyone&lt;/b&gt;" style="text;html=1;align=center;verticalAlign=middle;resizable=0;points=[];autosize=1;strokeColor=none;fillColor=none;" parent="1" vertex="1">
          <mxGeometry x="55" y="1708" width="140" height="30" as="geometry" />
        </mxCell>
        <mxCell id="Tm7ERoqtQPR2VgHOjCgq-77" value="&lt;b&gt;Share snapshot to Everyone&lt;/b&gt;" style="text;html=1;align=center;verticalAlign=middle;resizable=0;points=[];autosize=1;strokeColor=none;fillColor=none;" parent="1" vertex="1">
          <mxGeometry x="430" y="2108" width="190" height="30" as="geometry" />
        </mxCell>
        <mxCell id="Tm7ERoqtQPR2VgHOjCgq-80" style="edgeStyle=orthogonalEdgeStyle;rounded=0;orthogonalLoop=1;jettySize=auto;html=1;" parent="1" source="Tm7ERoqtQPR2VgHOjCgq-81" target="Tm7ERoqtQPR2VgHOjCgq-84" edge="1">
          <mxGeometry relative="1" as="geometry">
            <Array as="points">
              <mxPoint x="218.75" y="2427" />
            </Array>
          </mxGeometry>
        </mxCell>
        <mxCell id="Tm7ERoqtQPR2VgHOjCgq-81" value="" style="outlineConnect=0;dashed=0;verticalLabelPosition=bottom;verticalAlign=top;align=center;html=1;shape=mxgraph.aws3.volume;fillColor=#E05243;gradientColor=none;" parent="1" vertex="1">
          <mxGeometry x="192.75" y="2300" width="52.5" height="75" as="geometry" />
        </mxCell>
        <mxCell id="Tm7ERoqtQPR2VgHOjCgq-89" style="edgeStyle=orthogonalEdgeStyle;rounded=0;orthogonalLoop=1;jettySize=auto;html=1;entryX=0.5;entryY=1;entryDx=0;entryDy=0;entryPerimeter=0;" parent="1" source="Tm7ERoqtQPR2VgHOjCgq-84" target="Tm7ERoqtQPR2VgHOjCgq-85" edge="1">
          <mxGeometry relative="1" as="geometry" />
        </mxCell>
        <mxCell id="Tm7ERoqtQPR2VgHOjCgq-84" value="&lt;b&gt;Encrypted Snapshot&lt;/b&gt;" style="outlineConnect=0;dashed=0;verticalLabelPosition=bottom;verticalAlign=top;align=center;html=1;shape=mxgraph.aws3.snapshot;fillColor=#E05243;gradientColor=none;" parent="1" vertex="1">
          <mxGeometry x="189" y="2440" width="60" height="73.5" as="geometry" />
        </mxCell>
        <mxCell id="Tm7ERoqtQPR2VgHOjCgq-85" value="&lt;b&gt;Encrpted Volume&lt;/b&gt;" style="outlineConnect=0;dashed=0;verticalLabelPosition=bottom;verticalAlign=top;align=center;html=1;shape=mxgraph.aws3.volume;fillColor=#E05243;gradientColor=none;" parent="1" vertex="1">
          <mxGeometry x="447.5" y="2365" width="52.5" height="75" as="geometry" />
        </mxCell>
        <mxCell id="Tm7ERoqtQPR2VgHOjCgq-88" value="&lt;b&gt;Encrypted&lt;br&gt;Volume&lt;br&gt;&lt;/b&gt;" style="text;html=1;align=center;verticalAlign=middle;resizable=0;points=[];autosize=1;strokeColor=none;fillColor=none;" parent="1" vertex="1">
          <mxGeometry x="100" y="2313" width="80" height="40" as="geometry" />
        </mxCell>
        <mxCell id="Tm7ERoqtQPR2VgHOjCgq-90" style="edgeStyle=orthogonalEdgeStyle;rounded=0;orthogonalLoop=1;jettySize=auto;html=1;" parent="1" source="Tm7ERoqtQPR2VgHOjCgq-91" target="Tm7ERoqtQPR2VgHOjCgq-93" edge="1">
          <mxGeometry relative="1" as="geometry">
            <Array as="points">
              <mxPoint x="228.75" y="2767" />
            </Array>
          </mxGeometry>
        </mxCell>
        <mxCell id="Tm7ERoqtQPR2VgHOjCgq-91" value="" style="outlineConnect=0;dashed=0;verticalLabelPosition=bottom;verticalAlign=top;align=center;html=1;shape=mxgraph.aws3.volume;fillColor=#E05243;gradientColor=none;" parent="1" vertex="1">
          <mxGeometry x="202.75" y="2640" width="52.5" height="75" as="geometry" />
        </mxCell>
        <mxCell id="Tm7ERoqtQPR2VgHOjCgq-92" style="edgeStyle=orthogonalEdgeStyle;rounded=0;orthogonalLoop=1;jettySize=auto;html=1;entryX=0.5;entryY=1;entryDx=0;entryDy=0;entryPerimeter=0;" parent="1" source="Tm7ERoqtQPR2VgHOjCgq-93" target="Tm7ERoqtQPR2VgHOjCgq-94" edge="1">
          <mxGeometry relative="1" as="geometry" />
        </mxCell>
        <mxCell id="Tm7ERoqtQPR2VgHOjCgq-93" value="&lt;b&gt;Un-Encrypted Snapshot&lt;/b&gt;" style="outlineConnect=0;dashed=0;verticalLabelPosition=bottom;verticalAlign=top;align=center;html=1;shape=mxgraph.aws3.snapshot;fillColor=#E05243;gradientColor=none;" parent="1" vertex="1">
          <mxGeometry x="199" y="2780" width="60" height="73.5" as="geometry" />
        </mxCell>
        <mxCell id="Tm7ERoqtQPR2VgHOjCgq-94" value="&lt;b&gt;Encrpted Volume&lt;/b&gt;" style="outlineConnect=0;dashed=0;verticalLabelPosition=bottom;verticalAlign=top;align=center;html=1;shape=mxgraph.aws3.volume;fillColor=#E05243;gradientColor=none;" parent="1" vertex="1">
          <mxGeometry x="457.5" y="2705" width="52.5" height="75" as="geometry" />
        </mxCell>
        <mxCell id="Tm7ERoqtQPR2VgHOjCgq-95" value="&lt;b&gt;un-Encrypted&lt;br&gt;Volume&lt;br&gt;&lt;/b&gt;" style="text;html=1;align=center;verticalAlign=middle;resizable=0;points=[];autosize=1;strokeColor=none;fillColor=none;" parent="1" vertex="1">
          <mxGeometry x="100" y="2653" width="100" height="40" as="geometry" />
        </mxCell>
        <mxCell id="Tm7ERoqtQPR2VgHOjCgq-96" value="&lt;b&gt;Enable Encryptiuon&lt;/b&gt;" style="text;html=1;align=center;verticalAlign=middle;resizable=0;points=[];autosize=1;strokeColor=none;fillColor=none;" parent="1" vertex="1">
          <mxGeometry x="307.5" y="2818" width="140" height="30" as="geometry" />
        </mxCell>
      </root>
    </mxGraphModel>
  </diagram>
</mxfile>
